<?xml version="1.0" standalone="no"?>
<!DOCTYPE svg PUBLIC "-//W3C//DTD SVG 20010904//EN"
 "http://www.w3.org/TR/2001/REC-SVG-20010904/DTD/svg10.dtd">
<svg version="1.0" xmlns="http://www.w3.org/2000/svg"
 width="128.000000pt" height="128.000000pt" viewBox="0 0 128.000000 128.000000"
 preserveAspectRatio="xMidYMid meet">

<g transform="translate(0.000000,128.000000) scale(0.100000,-0.100000)"
fill="#000000" stroke="none">
<path d="M403 1165 c-99 -47 -181 -157 -233 -312 -31 -96 -32 -101 -27 -228 3
-73 12 -157 21 -190 41 -150 121 -262 225 -312 51 -25 66 -28 166 -28 97 0
116 3 165 26 54 25 112 73 142 117 l15 23 66 -16 65 -17 -11 -29 c-9 -24 -8
-33 9 -56 42 -56 134 -36 134 28 0 41 -34 61 -143 88 -54 12 -97 27 -97 31 0
4 43 19 97 31 110 27 143 47 143 89 0 39 -24 60 -70 60 -30 0 -43 -6 -59 -26
-22 -29 -27 -59 -11 -69 20 -12 9 -23 -32 -33 -23 -6 -44 -9 -46 -7 -2 1 6 33
17 71 12 37 26 119 33 183 10 107 10 122 -10 201 -45 176 -146 328 -252 377
-67 31 -240 30 -307 -2z m301 -25 c93 -44 184 -180 227 -337 18 -66 21 -94 16
-183 -6 -109 -36 -247 -62 -287 -12 -18 -20 -21 -38 -14 -12 5 -30 12 -40 15
-15 5 -13 12 19 53 68 89 121 248 110 330 -12 89 -128 265 -202 309 -41 24
-57 27 -152 29 -134 3 -180 -8 -232 -52 -65 -56 -154 -197 -171 -273 -19 -84
50 -282 130 -372 53 -59 165 -118 226 -118 32 0 46 -5 56 -21 l14 -20 109 26
c60 14 111 23 114 20 11 -11 -56 -67 -113 -95 -102 -49 -229 -49 -328 2 -125
63 -206 234 -223 473 -6 75 -3 103 15 170 47 170 135 300 236 347 70 32 221
31 289 -2z m-254 -149 c0 -34 -3 -39 -27 -44 -35 -7 -46 3 -38 36 6 22 21 33
63 46 1 1 2 -16 2 -38z m88 -3 c3 -36 2 -38 -27 -38 -30 0 -31 2 -31 41 0 38
1 40 28 37 23 -3 27 -8 30 -40z m100 5 c-3 -35 -6 -38 -33 -38 -24 0 -31 5
-33 23 -6 38 5 52 38 52 30 0 31 -2 28 -37z m87 -16 c0 -15 -3 -27 -7 -27 -5
0 -19 0 -33 0 -23 0 -25 4 -25 40 l0 40 33 -13 c25 -11 32 -19 32 -40z m-365
-16 c0 -10 -9 -21 -20 -24 -20 -5 -19 2 3 31 13 17 17 15 17 -7z m430 -22 c0
-5 -7 -6 -15 -3 -8 4 -15 13 -15 21 0 13 3 13 15 3 8 -7 15 -16 15 -21z m25
-43 c12 -8 38 -46 58 -84 41 -78 47 -129 23 -219 -18 -67 -24 -77 -41 -63 -8
7 -11 25 -7 55 10 91 -51 182 -139 205 -75 21 -129 -14 -129 -83 0 -12 -5 -29
-10 -37 -9 -13 -12 -12 -25 4 -8 11 -15 34 -15 51 0 60 -54 84 -134 61 -89
-26 -145 -118 -130 -214 4 -27 2 -41 -8 -50 -12 -9 -17 -2 -31 41 -39 122 -33
171 29 278 39 65 41 67 194 83 119 13 327 -3 365 -28z m-327 -138 c10 -13 15
-28 26 -80 4 -15 16 -32 27 -39 29 -15 56 11 64 64 9 55 20 67 62 67 33 0 34
-1 28 -34 -5 -22 -1 -44 9 -64 9 -17 16 -45 16 -62 0 -35 -17 -45 -113 -63
-49 -9 -70 -8 -132 8 -67 16 -75 21 -80 46 -4 17 0 40 10 60 11 21 15 46 12
71 -5 37 -5 38 28 38 18 0 37 -6 43 -12z m-94 -24 c3 -8 -1 -31 -9 -51 -8 -19
-15 -53 -15 -74 0 -30 -4 -39 -17 -39 -10 0 -28 -3 -40 -6 -21 -6 -23 -3 -23
34 0 52 14 90 48 125 29 31 47 34 56 11z m367 6 c38 -21 82 -150 58 -174 -3
-3 -22 -3 -43 1 -32 5 -37 9 -32 27 3 12 -1 44 -10 73 -15 47 -14 83 1 83 4 0
15 -5 26 -10z m-316 -206 c66 -21 160 -20 224 1 60 20 110 14 153 -17 15 -10
28 -27 28 -37 0 -24 -79 -131 -97 -131 -8 0 -44 7 -80 17 l-66 16 -18 -25
c-16 -22 -25 -25 -76 -22 -149 5 -182 20 -229 100 -30 51 -24 70 30 95 50 23
67 23 131 3z m659 -97 c38 -28 -6 -76 -61 -65 -25 5 -30 48 -7 65 23 17 45 17
68 0z m-454 -97 c0 -13 -11 -13 -30 0 -12 8 -11 10 8 10 12 0 22 -4 22 -10z
m-202 -37 c5 -18 -10 -16 -34 2 -18 15 -18 15 5 13 14 -2 26 -9 29 -15z m249
1 c-30 -16 -44 -14 -32 5 3 6 18 11 33 11 l27 -1 -28 -15z m143 -14 c0 -7
-195 -60 -222 -60 -20 0 4 17 42 29 20 6 51 22 70 35 29 20 39 22 72 13 21 -5
38 -13 38 -17z m-300 -6 c0 -20 -4 -25 -16 -20 -9 3 -22 6 -30 6 -8 0 -14 9
-14 20 0 16 7 20 30 20 26 0 30 -4 30 -26z m90 6 c0 -11 -6 -20 -14 -20 -8 0
-21 -3 -30 -6 -12 -5 -16 0 -16 20 0 22 4 26 30 26 23 0 30 -4 30 -20z m474
-96 c23 -22 20 -43 -9 -56 -35 -16 -75 3 -75 35 0 13 3 27 7 30 12 13 62 7 77
-9z"/>
</g>
</svg>
