<?xml version="1.0" standalone="no"?>
<!DOCTYPE svg PUBLIC "-//W3C//DTD SVG 20010904//EN"
 "http://www.w3.org/TR/2001/REC-SVG-20010904/DTD/svg10.dtd">
<svg version="1.0" xmlns="http://www.w3.org/2000/svg"
 width="128.000000pt" height="128.000000pt" viewBox="0 0 128.000000 128.000000"
 preserveAspectRatio="xMidYMid meet">

<g transform="translate(0.000000,128.000000) scale(0.100000,-0.100000)"
fill="#000000" stroke="none">
<path d="M1020 1225 c-14 -8 -36 -14 -50 -15 -14 0 -38 -7 -53 -15 -20 -10
-35 -12 -53 -5 -38 15 -76 12 -164 -11 l-79 -20 -74 20 c-88 25 -125 26 -175
6 -126 -53 -163 -215 -76 -332 l24 -31 -68 -33 c-40 -21 -89 -36 -122 -39
l-55 -5 -3 -318 -2 -319 34 -34 34 -34 487 0 487 0 34 34 34 34 -2 319 -3 318
-55 5 c-33 3 -81 18 -122 38 l-66 33 30 49 30 49 35 -17 c33 -16 35 -15 79 8
25 14 57 38 72 53 25 26 27 35 30 130 l4 103 -64 16 c-34 8 -72 18 -83 22 -11
3 -31 -1 -45 -9z m113 -43 l42 -8 3 -80 c3 -93 -8 -115 -80 -153 l-43 -23 -50
29 c-59 34 -74 66 -74 160 -1 60 0 63 27 69 15 3 43 11 62 18 22 8 41 10 53 4
10 -5 37 -12 60 -16z m-606 -28 c61 -21 135 -21 196 0 59 20 97 20 142 2 32
-14 35 -18 35 -58 1 -63 15 -117 39 -142 27 -29 26 -38 -5 -75 -23 -28 -28
-47 -40 -162 -14 -137 -26 -195 -51 -244 -20 -40 -53 -75 -70 -75 -20 0 -44
64 -54 144 -11 86 -35 138 -71 150 -63 22 -102 -29 -117 -152 -10 -78 -34
-142 -54 -142 -17 0 -50 35 -70 75 -25 49 -38 112 -52 242 -11 108 -16 128
-41 165 -25 36 -29 50 -29 112 0 85 24 127 89 157 51 23 91 24 153 3z m-181
-579 c18 -92 34 -127 77 -172 68 -72 117 -24 137 133 11 82 26 121 50 129 44
14 64 -19 80 -131 22 -164 72 -206 144 -122 45 53 71 134 87 272 l12 104 26
-11 c14 -6 43 -22 63 -34 25 -15 53 -23 83 -23 l45 0 0 -299 c0 -287 -1 -299
-21 -325 l-20 -26 -484 0 -484 0 -20 26 c-20 26 -21 38 -21 325 l0 299 46 0
c29 0 56 7 73 19 14 10 42 25 61 33 l35 15 8 -66 c4 -36 14 -102 23 -146z"/>
<path d="M1047 1133 c-4 -3 -7 -17 -7 -30 0 -19 -5 -23 -30 -23 -20 0 -30 -5
-30 -15 0 -10 10 -15 30 -15 27 0 30 -3 30 -30 0 -20 5 -30 15 -30 10 0 15 10
15 29 0 26 4 30 33 33 17 2 32 8 32 13 0 6 -15 11 -32 13 -29 3 -33 7 -33 33
0 28 -9 37 -23 22z"/>
</g>
</svg>
