<?xml version="1.0" standalone="no"?>
<!DOCTYPE svg PUBLIC "-//W3C//DTD SVG 20010904//EN"
 "http://www.w3.org/TR/2001/REC-SVG-20010904/DTD/svg10.dtd">
<svg version="1.0" xmlns="http://www.w3.org/2000/svg"
 width="128.000000pt" height="128.000000pt" viewBox="0 0 128.000000 128.000000"
 preserveAspectRatio="xMidYMid meet">

<g transform="translate(0.000000,128.000000) scale(0.100000,-0.100000)"
fill="#000000" stroke="none">
<path d="M104 1173 c-16 -49 -26 -62 -59 -74 -39 -14 -44 -41 -10 -47 28 -5
63 -40 67 -66 4 -27 38 -35 38 -8 0 30 36 69 70 75 40 9 38 23 -7 44 -25 12
-44 31 -56 56 -20 40 -35 47 -43 20z m35 -87 c9 -10 8 -16 -4 -26 -21 -17 -51
6 -34 26 6 8 15 14 19 14 4 0 13 -6 19 -14z"/>
<path d="M383 986 c-55 -18 -110 -51 -208 -125 -44 -34 -99 -68 -122 -77 -41
-16 -43 -19 -43 -59 0 -131 100 -303 222 -382 38 -24 40 -28 21 -31 -29 -4
-32 -42 -4 -42 26 0 71 -38 71 -60 0 -9 7 -23 15 -30 12 -10 17 -5 30 26 25
60 29 61 224 56 278 -7 426 33 538 146 81 83 143 221 143 318 0 40 -2 43 -35
54 -19 6 -81 45 -137 87 -190 140 -250 154 -364 86 -39 -24 -81 -43 -94 -43
-13 0 -53 18 -90 40 -78 47 -111 54 -167 36z m158 -76 c83 -54 116 -53 200 2
83 55 121 56 210 4 101 -58 240 -163 224 -169 -7 -3 -51 -11 -97 -17 -64 -9
-124 -9 -260 1 -142 10 -214 10 -356 0 -136 -10 -196 -10 -260 -1 -120 16
-121 17 -60 58 29 19 71 50 93 67 87 69 172 108 216 100 15 -2 55 -22 90 -45z
m-440 -247 c67 -117 173 -195 316 -230 94 -23 352 -23 446 0 143 35 249 113
316 230 31 55 51 72 51 43 0 -36 -44 -148 -78 -202 -101 -156 -248 -210 -551
-202 -91 3 -178 10 -192 16 -17 7 -32 26 -43 52 -14 35 -19 40 -31 30 -8 -7
-15 -21 -15 -31 0 -26 -18 -24 -65 7 -62 42 -85 65 -127 128 -34 54 -78 166
-78 202 0 29 20 12 51 -43z m137 21 c17 -3 22 -11 22 -34 0 -20 -5 -30 -15
-30 -32 0 -115 52 -115 72 0 7 49 4 108 -8z m292 -52 l0 -68 -52 6 -53 5 0 55
0 55 50 6 c28 3 51 7 53 7 1 1 2 -28 2 -66z m180 -2 l0 -70 -70 0 -70 0 0 70
0 70 70 0 70 0 0 -70z m145 0 l0 -55 -52 -5 -53 -6 0 66 0 66 53 -6 52 -5 0
-55z m295 62 c0 -20 -83 -72 -115 -72 -10 0 -15 10 -15 30 0 34 2 35 118 49 6
0 12 -3 12 -7z m-770 -63 c0 -43 -2 -50 -17 -45 -65 17 -63 16 -63 57 0 39 0
39 40 39 l40 0 0 -51z m600 11 c0 -41 -2 -43 -52 -54 -28 -6 -28 -6 -28 44 l0
50 40 0 40 0 0 -40z m-730 -70 c8 -5 11 -12 7 -16 -4 -4 -15 0 -24 9 -18 18
-8 23 17 7z m797 -7 c-9 -9 -20 -13 -24 -9 -4 4 -1 11 7 16 25 16 35 11 17 -7z
m-694 -17 c20 -5 27 -12 27 -31 0 -29 -2 -29 -47 -13 -24 9 -33 18 -33 35 0
13 5 21 13 19 6 -3 24 -7 40 -10z m627 -9 c0 -17 -9 -26 -33 -35 -45 -16 -47
-16 -47 13 0 19 7 26 28 31 15 3 32 7 37 9 6 2 11 4 13 4 1 1 2 -9 2 -22z
m-452 -44 c3 -31 1 -33 -27 -33 -51 0 -81 17 -81 45 0 25 2 26 53 23 51 -3 52
-4 55 -35z m332 12 c0 -28 -30 -45 -81 -45 -25 0 -29 4 -29 28 0 38 5 42 62
42 45 0 48 -2 48 -25z m-150 -20 l0 -35 -70 0 -70 0 0 35 0 35 70 0 70 0 0
-35z m-351 -211 c-14 -14 -17 -14 -29 0 -10 13 -10 19 0 32 12 14 15 14 29 0
14 -15 14 -17 0 -32z"/>
<path d="M1140 322 c0 -29 -37 -70 -70 -77 -39 -9 -39 -34 0 -42 34 -6 70 -45
70 -75 0 -32 31 -17 44 22 8 27 19 38 46 46 49 16 49 37 1 56 -32 13 -42 23
-49 49 -9 38 -42 54 -42 21z m39 -86 c17 -20 -13 -43 -34 -26 -12 10 -13 16
-4 26 6 8 15 14 19 14 4 0 13 -6 19 -14z"/>
</g>
</svg>
